<svg width="22" height="22" viewBox="0 0 22 22" fill="none" xmlns="http://www.w3.org/2000/svg">
<path d="M10.9961 2.50244C6.30236 2.50244 2.49609 6.30718 2.49609 11C2.49609 13.4411 3.53148 15.6346 5.17823 17.1827L4.00479 18.6095C3.89633 18.7066 3.83223 18.8279 3.83223 18.9638C3.83223 19.2598 4.13298 19.4976 4.50276 19.4976C4.557 19.4976 4.6063 19.4927 4.65561 19.483L4.66547 19.4927H10.789H10.7841C10.858 19.4927 10.9271 19.4976 11.001 19.4976C15.6948 19.4976 19.501 15.6929 19.501 11C19.501 6.30718 15.6898 2.50244 10.9961 2.50244Z" fill="#00A8E3"/>
<path d="M14.5039 11.4995L11.1338 14.8696C11.0621 14.9414 10.9458 14.9414 10.874 14.8696L7.50391 11.4995C6.67548 10.6711 6.67548 9.32794 7.50391 8.49951C8.33233 7.67108 9.67548 7.67108 10.5039 8.49951L11.0039 8.99951L11.5039 8.49951C12.3323 7.67108 13.6755 7.67108 14.5039 8.49951C15.3323 9.32794 15.3323 10.6711 14.5039 11.4995Z" fill="white"/>
</svg>
