<svg width="22" height="22" viewBox="0 0 22 22" fill="none" xmlns="http://www.w3.org/2000/svg">
<path d="M3.84838 8.5H6.87037C6.95513 8.5 7.01557 8.52336 7.04688 8.54297V15.457C7.01557 15.4766 6.95513 15.5 6.87037 15.5H3.84838C3.76362 15.5 3.70318 15.4766 3.67188 15.457V8.54297C3.70318 8.52336 3.76362 8.5 3.84838 8.5Z" fill="#00A8E3" stroke="#00A8E3"/>
<path d="M16.7828 15.2727C17.2824 15.2727 17.7054 14.904 17.7735 14.409L18.6704 7.88973C18.7531 7.28892 18.2862 6.75343 17.6798 6.75343H15.1727C14.6204 6.75343 14.1727 6.30571 14.1727 5.75343V3.16534C14.1727 2.55255 13.6266 2.08389 13.0209 2.17693L12.7466 2.21907C12.4591 2.26323 12.2051 2.43034 12.0508 2.67686L8.48438 8.37384V15.2727H16.7828Z" fill="#00A8E3"/>
</svg>
